<svg width="16" height="16" viewBox="0 0 16 16" fill="none" xmlns="http://www.w3.org/2000/svg">
<mask id="mask0_33_1102" style="mask-type:alpha" maskUnits="userSpaceOnUse" x="0" y="0" width="16" height="16">
<rect width="16" height="16" fill="#D9D9D9"/>
</mask>
<g mask="url(#mask0_33_1102)">
<path d="M0.285706 15.7143V12.0715L11.6 0.778624C11.7714 0.621481 11.9607 0.500052 12.1678 0.414338C12.375 0.328624 12.5928 0.285767 12.8214 0.285767C13.05 0.285767 13.2714 0.328624 13.4857 0.414338C13.7 0.500052 13.8857 0.628624 14.0428 0.800052L15.2214 2.00005C15.3928 2.1572 15.5178 2.34291 15.5964 2.5572C15.675 2.77148 15.7143 2.98577 15.7143 3.20005C15.7143 3.42862 15.675 3.64648 15.5964 3.85362C15.5178 4.06077 15.3928 4.25005 15.2214 4.42148L3.92856 15.7143H0.285706ZM12.8 4.40005L14 3.20005L12.8 2.00005L11.6 3.20005L12.8 4.40005Z" fill="#BFBFBF"/>
</g>
</svg>
