<svg width="13" height="12" viewBox="0 0 13 12" fill="none" xmlns="http://www.w3.org/2000/svg">
<path d="M4.34 9L6.5 6.84L8.66 9L9.5 8.16L7.34 6L9.5 3.84L8.66 3L6.5 5.16L4.34 3L3.5 3.84L5.66 6L3.5 8.16L4.34 9ZM6.5 12C5.67 12 4.89 11.8425 4.16 11.5275C3.43 11.2125 2.795 10.785 2.255 10.245C1.715 9.705 1.2875 9.07 0.9725 8.34C0.6575 7.61 0.5 6.83 0.5 6C0.5 5.17 0.6575 4.39 0.9725 3.66C1.2875 2.93 1.715 2.295 2.255 1.755C2.795 1.215 3.43 0.7875 4.16 0.4725C4.89 0.1575 5.67 0 6.5 0C7.33 0 8.11 0.1575 8.84 0.4725C9.57 0.7875 10.205 1.215 10.745 1.755C11.285 2.295 11.7125 2.93 12.0275 3.66C12.3425 4.39 12.5 5.17 12.5 6C12.5 6.83 12.3425 7.61 12.0275 8.34C11.7125 9.07 11.285 9.705 10.745 10.245C10.205 10.785 9.57 11.2125 8.84 11.5275C8.11 11.8425 7.33 12 6.5 12ZM6.5 10.8C7.84 10.8 8.975 10.335 9.905 9.405C10.835 8.475 11.3 7.34 11.3 6C11.3 4.66 10.835 3.525 9.905 2.595C8.975 1.665 7.84 1.2 6.5 1.2C5.16 1.2 4.025 1.665 3.095 2.595C2.165 3.525 1.7 4.66 1.7 6C1.7 7.34 2.165 8.475 3.095 9.405C4.025 10.335 5.16 10.8 6.5 10.8Z" fill="black"/>
</svg>
