<svg width="16" height="16" viewBox="0 0 16 16" fill="none" xmlns="http://www.w3.org/2000/svg">
<path d="M14.1646 16L9.4359 11.1401L11.2497 9.27601L15.9784 14.1359L14.1646 16ZM2.24561 16L0.431849 14.1359L6.39136 8.0111L4.92308 6.50208L4.31849 7.12344L3.21727 5.99168V7.81137L2.61269 8.43273L0 5.74757L0.604588 5.12621H2.37517L1.29555 4.01664L4.36167 0.865465C4.64957 0.569579 4.95906 0.355062 5.29015 0.221914C5.62123 0.0887656 5.95951 0.0221914 6.30499 0.0221914C6.65047 0.0221914 6.98875 0.0887656 7.31984 0.221914C7.65092 0.355062 7.96041 0.569579 8.24831 0.865465L6.26181 2.90707L7.34143 4.01664L6.73684 4.638L8.20513 6.14702L10.1484 4.14979C10.0909 3.98706 10.0441 3.81692 10.0081 3.63939C9.97211 3.46186 9.95412 3.28433 9.95412 3.1068C9.95412 2.23393 10.2456 1.49792 10.8286 0.898752C11.4116 0.299584 12.1278 0 12.9771 0C13.193 0 13.3981 0.0221914 13.5924 0.0665742C13.7868 0.110957 13.9847 0.177531 14.1862 0.266297L12.0486 2.46325L13.6032 4.06103L15.7409 1.86408C15.8417 2.0712 15.91 2.27462 15.946 2.47434C15.982 2.67406 16 2.88488 16 3.1068C16 3.97966 15.7085 4.71567 15.1255 5.31484C14.5425 5.91401 13.8264 6.21359 12.9771 6.21359C12.8043 6.21359 12.6316 6.1988 12.4588 6.16921C12.2861 6.13962 12.1206 6.08784 11.9622 6.01387L2.24561 16Z" fill="#BFBFBF"/>
</svg>
