<svg width="15" height="17" viewBox="0 0 15 17" fill="none" xmlns="http://www.w3.org/2000/svg">
<mask id="mask0_65_1095" style="mask-type:alpha" maskUnits="userSpaceOnUse" x="0" y="0" width="15" height="17">
<rect x="0.0556641" y="0.300781" width="14.4" height="16" fill="#BFBFBF"/>
</mask>
<g mask="url(#mask0_65_1095)">
<path d="M1.60195 16.3008C1.16195 16.3008 0.785286 16.1441 0.471953 15.8308C0.15862 15.5174 0.00195312 15.1408 0.00195312 14.7008V3.50078C0.00195312 3.06078 0.15862 2.68411 0.471953 2.37078C0.785286 2.05745 1.16195 1.90078 1.60195 1.90078H4.96195C5.13529 1.42078 5.42529 1.03411 5.83195 0.740781C6.23862 0.447448 6.69529 0.300781 7.20195 0.300781C7.70862 0.300781 8.16529 0.447448 8.57195 0.740781C8.97862 1.03411 9.26862 1.42078 9.44195 1.90078H12.802C13.242 1.90078 13.6186 2.05745 13.932 2.37078C14.2453 2.68411 14.402 3.06078 14.402 3.50078V14.7008C14.402 15.1408 14.2453 15.5174 13.932 15.8308C13.6186 16.1441 13.242 16.3008 12.802 16.3008H1.60195ZM3.20195 13.1008H8.80195V11.5008H3.20195V13.1008ZM3.20195 9.90078H11.202V8.30078H3.20195V9.90078ZM3.20195 6.70078H11.202V5.10078H3.20195V6.70078ZM7.20195 2.90078C7.37529 2.90078 7.51862 2.84411 7.63195 2.73078C7.74529 2.61745 7.80195 2.47411 7.80195 2.30078C7.80195 2.12745 7.74529 1.98411 7.63195 1.87078C7.51862 1.75745 7.37529 1.70078 7.20195 1.70078C7.02862 1.70078 6.88529 1.75745 6.77195 1.87078C6.65862 1.98411 6.60195 2.12745 6.60195 2.30078C6.60195 2.47411 6.65862 2.61745 6.77195 2.73078C6.88529 2.84411 7.02862 2.90078 7.20195 2.90078Z" fill="#BFBFBF"/>
</g>
</svg>
