<svg width="16" height="17" viewBox="0 0 16 17" fill="none" xmlns="http://www.w3.org/2000/svg">
<mask id="mask0_65_1136" style="mask-type:alpha" maskUnits="userSpaceOnUse" x="0" y="0" width="16" height="17">
<rect y="0.907471" width="16" height="16" fill="#BFBFBF"/>
</mask>
<g mask="url(#mask0_65_1136)">
<path d="M8.24976 8.90747C7.14976 8.90747 6.20809 8.5158 5.42476 7.73247C4.64142 6.94914 4.24976 6.00747 4.24976 4.90747C4.24976 3.80747 4.64142 2.8658 5.42476 2.08247C6.20809 1.29914 7.14976 0.907471 8.24976 0.907471C9.34976 0.907471 10.2914 1.29914 11.0748 2.08247C11.8581 2.8658 12.2498 3.80747 12.2498 4.90747C12.2498 6.00747 11.8581 6.94914 11.0748 7.73247C10.2914 8.5158 9.34976 8.90747 8.24976 8.90747ZM0.249756 16.9075V14.1075C0.249756 13.5408 0.395589 13.02 0.687256 12.545C0.978923 12.07 1.36642 11.7075 1.84976 11.4575C2.88309 10.9408 3.93309 10.5533 4.99976 10.295C6.06642 10.0366 7.14976 9.90747 8.24976 9.90747C9.34976 9.90747 10.4331 10.0366 11.4998 10.295C12.5664 10.5533 13.6164 10.9408 14.6498 11.4575C15.1331 11.7075 15.5206 12.07 15.8123 12.545C16.1039 13.02 16.2498 13.5408 16.2498 14.1075V16.9075H0.249756Z" fill="#BFBFBF"/>
</g>
</svg>
