<svg width="16" height="16" viewBox="0 0 16 16" fill="none" xmlns="http://www.w3.org/2000/svg">
<mask id="mask0_65_1106" style="mask-type:alpha" maskUnits="userSpaceOnUse" x="0" y="0" width="16" height="16">
<rect y="0.0419922" width="15.916" height="15.916" fill="#BFBFBF"/>
</mask>
<g mask="url(#mask0_65_1106)">
<path d="M6.66392 16C6.42703 16 6.22498 15.9306 6.05777 15.7917C5.89055 15.6528 5.78604 15.4722 5.74424 15.25L5.43071 13.625C5.11021 13.5 4.80016 13.3542 4.50057 13.1875C4.20098 13.0208 3.9188 12.8264 3.65404 12.6042L2.08639 13.1458C1.87738 13.2153 1.66487 13.2118 1.44889 13.1354C1.2329 13.059 1.06917 12.9236 0.957689 12.7292L0.121611 11.2708C0.0101343 11.0764 -0.0247023 10.8715 0.0171016 10.6562C0.0589055 10.441 0.163415 10.2569 0.330631 10.1042L1.56385 9.02083C1.53598 8.85417 1.51507 8.6875 1.50114 8.52083C1.48721 8.35417 1.48024 8.18056 1.48024 8C1.48024 7.81944 1.48721 7.64583 1.50114 7.47917C1.51507 7.3125 1.53598 7.14583 1.56385 6.97917L0.330631 5.89583C0.163415 5.74306 0.0589055 5.55903 0.0171016 5.34375C-0.0247023 5.12847 0.0101343 4.92361 0.121611 4.72917L0.957689 3.27083C1.06917 3.07639 1.2329 2.94097 1.44889 2.86458C1.66487 2.78819 1.87738 2.78472 2.08639 2.85417L3.65404 3.39583C3.9188 3.17361 4.20098 2.97917 4.50057 2.8125C4.80016 2.64583 5.11021 2.5 5.43071 2.375L5.74424 0.75C5.78604 0.527778 5.89055 0.347222 6.05777 0.208333C6.22498 0.0694444 6.42703 0 6.66392 0H8.33608C8.57297 0 8.77502 0.0694444 8.94223 0.208333C9.10945 0.347222 9.21396 0.527778 9.25576 0.75L9.56929 2.375C9.88979 2.5 10.1998 2.64583 10.4994 2.8125C10.799 2.97917 11.0812 3.17361 11.346 3.39583L12.9136 2.85417C13.1226 2.78472 13.3351 2.78819 13.5511 2.86458C13.7671 2.94097 13.9308 3.07639 14.0423 3.27083L14.8784 4.72917C14.9899 4.92361 15.0247 5.12847 14.9829 5.34375C14.9411 5.55903 14.8366 5.74306 14.6694 5.89583L13.4362 6.97917C13.464 7.14583 13.4849 7.3125 13.4989 7.47917C13.5128 7.64583 13.5198 7.81944 13.5198 8C13.5198 8.18056 13.5128 8.35417 13.4989 8.52083C13.4849 8.6875 13.464 8.85417 13.4362 9.02083L14.6694 10.1042C14.8366 10.2569 14.9411 10.441 14.9829 10.6562C15.0247 10.8715 14.9899 11.0764 14.8784 11.2708L14.0423 12.7292C13.9308 12.9236 13.7671 13.059 13.5511 13.1354C13.3351 13.2118 13.1226 13.2153 12.9136 13.1458L11.346 12.6042C11.0812 12.8264 10.799 13.0208 10.4994 13.1875C10.1998 13.3542 9.88979 13.5 9.56929 13.625L9.25576 15.25C9.21396 15.4722 9.10945 15.6528 8.94223 15.7917C8.77502 15.9306 8.57297 16 8.33608 16H6.66392ZM7.5 11C8.33608 11 9.04674 10.7083 9.632 10.125C10.2173 9.54167 10.5099 8.83333 10.5099 8C10.5099 7.16667 10.2173 6.45833 9.632 5.875C9.04674 5.29167 8.33608 5 7.5 5C6.66392 5 5.95326 5.29167 5.368 5.875C4.78275 6.45833 4.49012 7.16667 4.49012 8C4.49012 8.83333 4.78275 9.54167 5.368 10.125C5.95326 10.7083 6.66392 11 7.5 11Z" fill="#BFBFBF"/>
</g>
</svg>
