<svg width="16" height="16" viewBox="0 0 16 16" fill="none" xmlns="http://www.w3.org/2000/svg">
<mask id="mask0_14_147" style="mask-type:alpha" maskUnits="userSpaceOnUse" x="0" y="0" width="16" height="16">
<rect y="0.363647" width="16" height="15.2727" fill="#D9D9D9"/>
</mask>
<g mask="url(#mask0_14_147)">
<path d="M10.9818 8.5818L9.92727 7.52725C10.0364 6.95756 9.87273 6.42422 9.43636 5.92725C9 5.43028 8.43636 5.23634 7.74546 5.34543L6.69091 4.29089C6.89697 4.19392 7.10606 4.12119 7.31818 4.07271C7.5303 4.02422 7.75758 3.99998 8 3.99998C8.90909 3.99998 9.68182 4.31816 10.3182 4.95453C10.9545 5.59089 11.2727 6.36362 11.2727 7.27271C11.2727 7.51513 11.2485 7.7424 11.2 7.95453C11.1515 8.16665 11.0788 8.37574 10.9818 8.5818ZM13.3091 10.8727L12.2545 9.85453C12.7152 9.50301 13.1242 9.11816 13.4818 8.69998C13.8394 8.2818 14.1455 7.80604 14.4 7.27271C13.7939 6.04847 12.9242 5.07574 11.7909 4.35453C10.6576 3.63331 9.39394 3.27271 8 3.27271C7.64849 3.27271 7.30303 3.29695 6.96364 3.34543C6.62424 3.39392 6.29091 3.46665 5.96364 3.56362L4.83636 2.43634C5.33333 2.23028 5.84242 2.07574 6.36364 1.97271C6.88485 1.86968 7.4303 1.81816 8 1.81816C9.8303 1.81816 11.4606 2.32422 12.8909 3.33634C14.3212 4.34846 15.3576 5.66059 16 7.27271C15.7212 7.98786 15.3545 8.6515 14.9 9.26362C14.4455 9.87574 13.9152 10.4121 13.3091 10.8727ZM13.6727 15.3454L10.6182 12.3273C10.1939 12.4606 9.76667 12.5606 9.33636 12.6273C8.90606 12.6939 8.46061 12.7273 8 12.7273C6.1697 12.7273 4.53939 12.2212 3.10909 11.2091C1.67879 10.1969 0.642424 8.88483 0 7.27271C0.254545 6.63028 0.575758 6.03331 0.963636 5.4818C1.35152 4.93028 1.79394 4.43634 2.29091 3.99998L0.290909 1.96362L1.30909 0.945435L14.6909 14.3273L13.6727 15.3454ZM3.30909 5.01816C2.95758 5.33331 2.63636 5.67877 2.34545 6.05453C2.05455 6.43028 1.80606 6.83634 1.6 7.27271C2.20606 8.49695 3.07576 9.46968 4.20909 10.1909C5.34242 10.9121 6.60606 11.2727 8 11.2727C8.24242 11.2727 8.47879 11.2576 8.70909 11.2273C8.93939 11.1969 9.17576 11.1636 9.41818 11.1273L8.76364 10.4363C8.6303 10.4727 8.50303 10.5 8.38182 10.5182C8.26061 10.5363 8.13333 10.5454 8 10.5454C7.09091 10.5454 6.31818 10.2273 5.68182 9.59089C5.04545 8.95453 4.72727 8.1818 4.72727 7.27271C4.72727 7.13937 4.73636 7.0121 4.75455 6.89089C4.77273 6.76968 4.8 6.6424 4.83636 6.50907L3.30909 5.01816Z" fill="#BFBFBF"/>
</g>
</svg>
