<svg width="16" height="16" viewBox="0 0 16 16" fill="none" xmlns="http://www.w3.org/2000/svg">
<mask id="mask0_46_10921" style="mask-type:alpha" maskUnits="userSpaceOnUse" x="0" y="0" width="16" height="16">
<rect width="16" height="16" fill="#D9D9D9"/>
</mask>
<g mask="url(#mask0_46_10921)">
<path d="M3.2 9.6H12.8V8H3.2V9.6ZM3.2 7.2H12.8V5.6H3.2V7.2ZM3.2 4.8H12.8V3.2H3.2V4.8ZM16 16L12.8 12.8H1.6C1.16 12.8 0.783333 12.6433 0.47 12.33C0.156667 12.0167 0 11.64 0 11.2V1.6C0 1.16 0.156667 0.783333 0.47 0.47C0.783333 0.156667 1.16 0 1.6 0H14.4C14.84 0 15.2167 0.156667 15.53 0.47C15.8433 0.783333 16 1.16 16 1.6V16ZM1.6 11.2H13.48L14.4 12.1V1.6H1.6V11.2Z" fill="#808080"/>
</g>
</svg>
